<?xml version="1.0" encoding="UTF-8"?>
<svg xmlns="http://www.w3.org/2000/svg" xmlns:xlink="http://www.w3.org/1999/xlink" width="1280" height="720" viewBox="0 0 1280 720">
<defs>
<g>
<g id="glyph-0-0">
<path d="M 0.34375 0 L 0.34375 -0.1875 L 0.640625 -0.1875 C 0.703125 -0.1875 0.75 -0.203125 0.78125 -0.234375 C 0.8125 -0.273438 0.828125 -0.335938 0.828125 -0.421875 L 0.828125 -2.234375 C 0.734375 -2.117188 0.648438 -2.023438 0.578125 -1.953125 C 0.503906 -1.890625 0.429688 -1.859375 0.359375 -1.859375 C 0.304688 -1.859375 0.257812 -1.878906 0.21875 -1.921875 C 0.175781 -1.972656 0.15625 -2.039062 0.15625 -2.125 C 0.226562 -2.144531 0.304688 -2.171875 0.390625 -2.203125 C 0.484375 -2.242188 0.585938 -2.3125 0.703125 -2.40625 L 0.953125 -2.59375 L 1.359375 -2.59375 L 1.359375 -0.421875 C 1.359375 -0.347656 1.367188 -0.289062 1.390625 -0.25 C 1.421875 -0.207031 1.472656 -0.1875 1.546875 -0.1875 L 1.84375 -0.1875 L 1.84375 0 Z "/>
</g>
<g id="glyph-0-1">
<path d="M 1.015625 0.03125 C 0.796875 0.03125 0.617188 -0.0195312 0.484375 -0.125 C 0.359375 -0.238281 0.265625 -0.394531 0.203125 -0.59375 C 0.148438 -0.789062 0.125 -1.023438 0.125 -1.296875 C 0.125 -1.566406 0.148438 -1.796875 0.203125 -1.984375 C 0.265625 -2.179688 0.359375 -2.332031 0.484375 -2.4375 C 0.617188 -2.550781 0.796875 -2.609375 1.015625 -2.609375 C 1.222656 -2.609375 1.390625 -2.550781 1.515625 -2.4375 C 1.648438 -2.332031 1.742188 -2.179688 1.796875 -1.984375 C 1.859375 -1.785156 1.890625 -1.554688 1.890625 -1.296875 C 1.890625 -1.023438 1.859375 -0.789062 1.796875 -0.59375 C 1.742188 -0.394531 1.648438 -0.238281 1.515625 -0.125 C 1.390625 -0.0195312 1.222656 0.03125 1.015625 0.03125 Z M 1.015625 -0.203125 C 1.148438 -0.203125 1.234375 -0.296875 1.265625 -0.484375 C 1.304688 -0.679688 1.328125 -0.953125 1.328125 -1.296875 C 1.328125 -1.640625 1.304688 -1.90625 1.265625 -2.09375 C 1.234375 -2.28125 1.148438 -2.375 1.015625 -2.375 C 0.878906 -2.375 0.789062 -2.28125 0.75 -2.09375 C 0.707031 -1.90625 0.6875 -1.640625 0.6875 -1.296875 C 0.6875 -0.953125 0.707031 -0.679688 0.75 -0.484375 C 0.789062 -0.296875 0.878906 -0.203125 1.015625 -0.203125 Z "/>
</g>
</g>
</defs>
<g fill="rgb(90.980392%, 91.764706%, 92.941176%)" fill-opacity="1">
<use xlink:href="#glyph-0-0" x="30" y="23.859375"/>
<use xlink:href="#glyph-0-1" x="32" y="23.859375"/>
</g>
</svg>
